<?xml version="1.0" standalone="no"?><svg xmlns="http://www.w3.org/2000/svg" viewBox="0 0 1440 320"><path fill="#fca51d" fill-opacity="1" d="M0,96L40,101.3C80,107,160,117,240,106.7C320,96,400,64,480,58.7C560,53,640,75,720,90.7C800,107,880,117,960,138.7C1040,160,1120,192,1200,192C1280,192,1360,160,1400,144L1440,128L1440,320L1400,320C1360,320,1280,320,1200,320C1120,320,1040,320,960,320C880,320,800,320,720,320C640,320,560,320,480,320C400,320,320,320,240,320C160,320,80,320,40,320L0,320Z"></path></svg>